<svg width="480" height="39" viewBox="0 0 480 39" fill="none" xmlns="http://www.w3.org/2000/svg">
<path d="M480 38.8608H0V0H480V38.8608ZM5.06655 33.7947H474.934V5.06617H5.06655V33.7947Z" fill="#00171A"/>
<path d="M28.2541 14.2156H17.1514V24.6454H28.2541V14.2156Z" fill="#00171A"/>
<path d="M48.9477 14.2156H37.8481V24.6454H48.9477V14.2156Z" fill="#00171A"/>
<path d="M69.643 14.2156H58.5435V24.6454H69.643V14.2156Z" fill="#00171A"/>
<path d="M90.3378 14.2156H79.2383V24.6454H90.3378V14.2156Z" fill="#00171A"/>
<path d="M111.033 14.2156H99.9336V24.6454H111.033V14.2156Z" fill="#00171A"/>
<path d="M131.728 14.2156H120.628V24.6454H131.728V14.2156Z" fill="#00171A"/>
<path d="M152.423 14.2156H141.324V24.6454H152.423V14.2156Z" fill="#00171A"/>
<path d="M173.116 14.2156H162.021V24.6454H173.116V14.2156Z" fill="#00171A"/>
<path d="M193.811 14.2156H182.716V24.6454H193.811V14.2156Z" fill="#00171A"/>
<path d="M214.509 14.2156H203.409V24.6454H214.509V14.2156Z" fill="#00171A"/>
<path d="M235.202 14.2156H224.106V24.6454H235.202V14.2156Z" fill="#00171A"/>
<path d="M255.901 14.2156H244.797V24.6454H255.901V14.2156Z" fill="#CCCCCC"/>
<path d="M276.594 14.2156H265.495V24.6454H276.594V14.2156Z" fill="#CCCCCC"/>
<path d="M297.289 14.2156H286.189V24.6454H297.289V14.2156Z" fill="#CCCCCC"/>
<path d="M317.984 14.2156H306.885V24.6454H317.984V14.2156Z" fill="#CCCCCC"/>
<path d="M338.679 14.2156H327.58V24.6454H338.679V14.2156Z" fill="#CCCCCC"/>
<path d="M359.375 14.2156H348.275V24.6454H359.375V14.2156Z" fill="#CCCCCC"/>
<path d="M380.069 14.2156H368.97V24.6454H380.069V14.2156Z" fill="#CCCCCC"/>
<path d="M400.763 14.2156H389.667V24.6454H400.763V14.2156Z" fill="#CCCCCC"/>
<path d="M421.458 14.2156H410.362V24.6454H421.458V14.2156Z" fill="#CCCCCC"/>
<path d="M442.155 14.2156H431.056V24.6454H442.155V14.2156Z" fill="#CCCCCC"/>
<path d="M462.848 14.2156H451.753V24.6454H462.848V14.2156Z" fill="#CCCCCC"/>
</svg>
