<svg width="24" height="24" viewBox="0 0 24 24" fill="none" xmlns="http://www.w3.org/2000/svg">
<path d="M3 3H1V21H3V3ZM3 3H21V1H3V3ZM3 23H21V21H3V23ZM21 21H23V3H21V21Z" fill="black"/>
<path d="M14.7653 11.1937H15.6203V12.2387H16.4808V16.4325H14.7653V13.2906H13.9104V12.2387H13.0498V13.2906H12.1949V16.4325H10.4794V10.1419H12.1949V11.1937H13.0498V10.1419H14.7653V11.1937Z" fill="black"/>
<path d="M8.76385 10.1419H7.04834V16.4325H8.76385V10.1419Z" fill="black"/>
<path d="M8.76385 7H7.04834V9.09687H8.76385V7Z" fill="black"/>
</svg>
